<svg height="512" viewBox="0 0 64 64" width="512" xmlns="http://www.w3.org/2000/svg"><g id="chat-socail_media-video_call-smartphone-hand" data-name="chat-socail media-video call-smartphone-hand"><rect fill="#46f8ff" height="46" rx="2" width="28" x="18" y="9"/><path d="m46 11v42a2.006 2.006 0 0 1 -2 2h-4a2.006 2.006 0 0 0 2-2v-42a2.006 2.006 0 0 0 -2-2h4a2.006 2.006 0 0 1 2 2z" fill="#00d7df"/><path d="m60 5v8a2.006 2.006 0 0 1 -2 2h-10l-2 2.67-4 5.33v-8a2.006 2.006 0 0 1 -2-2v-8a2.006 2.006 0 0 1 2-2h16a2.006 2.006 0 0 1 2 2z" fill="#e0e0e2"/><path d="m60 5v8a2.006 2.006 0 0 1 -2 2h-4a2.006 2.006 0 0 0 2-2v-8a2.006 2.006 0 0 0 -2-2h4a2.006 2.006 0 0 1 2 2z" fill="#acabb1"/><g fill="#ffc477"><path d="m48 27a3 3 0 0 1 0 6h-4a3 3 0 0 1 0-6z"/><path d="m48 33a3 3 0 0 1 0 6h-4a3 3 0 0 1 -2.47-4.7 2.786 2.786 0 0 1 .35-.42 2.993 2.993 0 0 1 2.12-.88z"/><path d="m48 39a3 3 0 0 1 0 6h-4a3 3 0 0 1 0-6z"/><path d="m41.18 47a2.838 2.838 0 0 1 .7-1.12 2.993 2.993 0 0 1 2.12-.88h4a3 3 0 0 1 0 6h-4a3 3 0 0 1 -3-3 2.772 2.772 0 0 1 .18-1z"/></g><path d="m51 30a3 3 0 0 1 -3 3h-4a3 3 0 0 0 0-6h4a3 3 0 0 1 3 3z" fill="#ffa733"/><path d="m51 36a3 3 0 0 1 -3 3h-4a3 3 0 0 0 0-6h4a3 3 0 0 1 3 3z" fill="#ffa733"/><path d="m51 42a3 3 0 0 1 -3 3h-4a3 3 0 0 0 0-6h4a3 3 0 0 1 3 3z" fill="#ffa733"/><path d="m51 48a3 3 0 0 1 -3 3h-4a3 3 0 0 0 0-6h4a3 3 0 0 1 3 3z" fill="#ffa733"/><path d="m41 36a3 3 0 0 0 3 3 3 3 0 0 0 0 6 2.993 2.993 0 0 0 -2.12.88 2.838 2.838 0 0 0 -.7 1.12h-19.18v-7h2a4 4 0 1 0 0-8h-.24a7.956 7.956 0 0 1 6.24-3h4a7.992 7.992 0 0 1 7.53 5.3 3 3 0 0 0 -.53 1.7z" fill="#ff3051"/><path d="m41.2 55-4.2 6h-22l-2-21v-4a4 4 0 0 1 4-4h7a4 4 0 0 1 0 8h-6v13a2.006 2.006 0 0 0 2 2z" fill="#ffc477"/><path d="m18 40a4 4 0 1 0 0-8h6a4 4 0 0 1 0 8z" fill="#ffa733"/><path d="m41.2 55-4.2 6h-6l4.2-6z" fill="#ffa733"/><circle cx="32" cy="23" fill="#ffc477" r="6"/><path d="m38 23a6 6 0 0 1 -6 6 5.8 5.8 0 0 1 -2-.35 5.99 5.99 0 0 0 0-11.3 5.8 5.8 0 0 1 2-.35 6 6 0 0 1 6 6z" fill="#ffa733"/><path d="m24 9v4a2.015 2.015 0 0 1 -2 2v8l-4-5.33-2-2.67h-10a2.006 2.006 0 0 1 -2-2v-8a2.006 2.006 0 0 1 2-2h16a2.006 2.006 0 0 1 2 2z" fill="#fee9ab"/><path d="m24 5v8a2.015 2.015 0 0 1 -2 2v8l-4-5.33-1-1.33v-1.34a2.015 2.015 0 0 0 2-2v-8a2.006 2.006 0 0 0 -2-2h5a2.006 2.006 0 0 1 2 2z" fill="#ffde55"/><path d="m58 2h-16a3.009 3.009 0 0 0 -3 3v3h-14v-3a3.009 3.009 0 0 0 -3-3h-16a3.009 3.009 0 0 0 -3 3v8a3.009 3.009 0 0 0 3 3h9.5l1.5 2v13a5 5 0 0 0 -5 5v4.09l2 21a1 1 0 0 0 1 .91h22a1 1 0 0 0 .82-.43l3.9-5.57h2.28a3.009 3.009 0 0 0 3-3v-1h1a3.985 3.985 0 0 0 2.62-7 3.951 3.951 0 0 0 0-6 3.951 3.951 0 0 0 0-6 3.985 3.985 0 0 0 -2.62-7h-1v-8l1.5-2h9.5a3.009 3.009 0 0 0 3-3v-8a3.009 3.009 0 0 0 -3-3zm-33 11v-3h14v3a3.014 3.014 0 0 0 2 2.83v7.17a1.014 1.014 0 0 0 .68.95 1.185 1.185 0 0 0 .32.05.985.985 0 0 0 .8-.4l2.2-2.93v5.33h-1a4 4 0 0 0 -4 4c0 .12.02.23.03.34a9 9 0 0 0 -3.55-1.97 7 7 0 1 0 -8.97-.01 8.94 8.94 0 0 0 -4.2 2.64h-4.31v-10.33l2.2 2.93a.985.985 0 0 0 .8.4 1.185 1.185 0 0 0 .32-.05 1.014 1.014 0 0 0 .68-.95v-7.17a3.014 3.014 0 0 0 2-2.83zm16.38 32a3.949 3.949 0 0 0 -.82 1h-17.56v-5h1a4.993 4.993 0 0 0 1.86-9.63 6.9 6.9 0 0 1 4.14-1.37h4a7 7 0 0 1 6.42 4.25 3.918 3.918 0 0 0 .96 4.75 3.951 3.951 0 0 0 0 6zm-14.38-22a5 5 0 1 1 5 5 5 5 0 0 1 -5-5zm-10.2-8.6a1.014 1.014 0 0 0 -.8-.4h-10a1 1 0 0 1 -1-1v-8a1 1 0 0 1 1-1h16a1 1 0 0 1 1 1v8a1 1 0 0 1 -1 1 1 1 0 0 0 -1 1v5zm19.68 45.6h-20.57l-1.91-20v-4a3.009 3.009 0 0 1 3-3h7a3 3 0 0 1 0 6h-6a1 1 0 0 0 -1 1v13a3.009 3.009 0 0 0 3 3h19.28zm8.52-7a1 1 0 0 1 -1 1h-24a1 1 0 0 1 -1-1v-12h2v6a1 1 0 0 0 1 1h18a4 4 0 0 0 4 4h1zm3-3h-4a2 2 0 0 1 0-4h4a2 2 0 0 1 0 4zm0-6h-4a2 2 0 0 1 0-4h4a2 2 0 0 1 0 4zm0-6h-4a2 2 0 0 1 0-4h4a2 2 0 0 1 0 4zm0-10a2 2 0 0 1 0 4h-4a2 2 0 0 1 0-4zm11-15a1 1 0 0 1 -1 1h-10a1.014 1.014 0 0 0 -.8.4l-4.2 5.6v-5a1 1 0 0 0 -1-1 1 1 0 0 1 -1-1v-8a1 1 0 0 1 1-1h16a1 1 0 0 1 1 1z"/><path d="m7 6h2v2h-2z"/><path d="m11 6h10v2h-10z"/><path d="m7 10h14v2h-14z"/><path d="m43 6h2v2h-2z"/><path d="m47 6h10v2h-10z"/><path d="m43 10h14v2h-14z"/></g></svg>